<svg width="36" height="39" viewBox="0 0 36 39" fill="none" xmlns="http://www.w3.org/2000/svg">
<path d="M18 20.2489C17.5889 20.2489 17.2035 20.186 16.8438 20.0603C16.484 19.9346 16.15 19.7186 15.8417 19.4125L1.65833 5.42078C1.09306 4.86315 0.797057 4.16559 0.770334 3.32812C0.743612 2.49065 1.03961 1.76876 1.65833 1.16245C2.22361 0.604814 2.94306 0.325995 3.81667 0.325995C4.69028 0.325995 5.40972 0.604814 5.975 1.16245L18 12.9489L30.025 1.16245C30.5903 0.604814 31.2974 0.313828 32.1463 0.289494C32.9953 0.265161 33.7271 0.556148 34.3417 1.16245C34.9069 1.72009 35.1896 2.42981 35.1896 3.29162C35.1896 4.15342 34.9069 4.86315 34.3417 5.42078L20.1583 19.4125C19.85 19.7166 19.516 19.9326 19.1562 20.0603C18.7965 20.1881 18.4111 20.2509 18 20.2489ZM18 38.4989C17.5889 38.4989 17.2035 38.4361 16.8438 38.3103C16.484 38.1846 16.15 37.9686 15.8417 37.6624L1.65833 23.6708C1.09306 23.1131 0.797057 22.4166 0.770334 21.5812C0.743612 20.7457 1.03961 20.0228 1.65833 19.4125C2.22361 18.8548 2.94306 18.576 3.81667 18.576C4.69028 18.576 5.40972 18.8548 5.975 19.4125L18 31.1989L30.025 19.4125C30.5903 18.8548 31.2974 18.5628 32.1463 18.5365C32.9953 18.5101 33.7271 18.8021 34.3417 19.4125C34.9069 19.9701 35.1896 20.6798 35.1896 21.5416C35.1896 22.4034 34.9069 23.1131 34.3417 23.6708L20.1583 37.6624C19.85 37.9666 19.516 38.1826 19.1562 38.3103C18.7965 38.4381 18.4111 38.5009 18 38.4989Z" fill="#E79A4E"/>
</svg>
