<svg width="193" height="193" viewBox="0 0 193 193" fill="none" xmlns="http://www.w3.org/2000/svg">
<path d="M144.75 32.1667H136.708V24.125C136.708 21.9922 135.861 19.9468 134.353 18.4387C132.845 16.9306 130.799 16.0833 128.667 16.0833C126.534 16.0833 124.488 16.9306 122.98 18.4387C121.472 19.9468 120.625 21.9922 120.625 24.125V32.1667H72.375V24.125C72.375 21.9922 71.5277 19.9468 70.0196 18.4387C68.5115 16.9306 66.4661 16.0833 64.3333 16.0833C62.2005 16.0833 60.1551 16.9306 58.647 18.4387C57.1389 19.9468 56.2916 21.9922 56.2916 24.125V32.1667H48.25C41.8516 32.1667 35.7153 34.7084 31.191 39.2327C26.6667 43.757 24.125 49.8933 24.125 56.2917V152.792C24.125 159.19 26.6667 165.326 31.191 169.851C35.7153 174.375 41.8516 176.917 48.25 176.917H144.75C151.148 176.917 157.285 174.375 161.809 169.851C166.333 165.326 168.875 159.19 168.875 152.792V56.2917C168.875 49.8933 166.333 43.757 161.809 39.2327C157.285 34.7084 151.148 32.1667 144.75 32.1667ZM64.3333 136.708C62.7428 136.708 61.188 136.237 59.8656 135.353C58.5431 134.469 57.5124 133.214 56.9038 131.744C56.2951 130.275 56.1359 128.658 56.4462 127.098C56.7564 125.538 57.5223 124.105 58.647 122.98C59.7716 121.856 61.2045 121.09 62.7645 120.78C64.3244 120.469 65.9413 120.628 67.4107 121.237C68.8801 121.846 70.1361 122.877 71.0197 124.199C71.9033 125.521 72.375 127.076 72.375 128.667C72.375 130.799 71.5277 132.845 70.0196 134.353C68.5115 135.861 66.4661 136.708 64.3333 136.708ZM128.667 136.708H96.5C94.3672 136.708 92.3218 135.861 90.8137 134.353C89.3055 132.845 88.4583 130.799 88.4583 128.667C88.4583 126.534 89.3055 124.488 90.8137 122.98C92.3218 121.472 94.3672 120.625 96.5 120.625H128.667C130.799 120.625 132.845 121.472 134.353 122.98C135.861 124.488 136.708 126.534 136.708 128.667C136.708 130.799 135.861 132.845 134.353 134.353C132.845 135.861 130.799 136.708 128.667 136.708ZM152.792 88.4583H40.2083V56.2917C40.2083 54.1589 41.0555 52.1135 42.5637 50.6054C44.0718 49.0973 46.1172 48.25 48.25 48.25H56.2916V56.2917C56.2916 58.4245 57.1389 60.4699 58.647 61.978C60.1551 63.4861 62.2005 64.3333 64.3333 64.3333C66.4661 64.3333 68.5115 63.4861 70.0196 61.978C71.5277 60.4699 72.375 58.4245 72.375 56.2917V48.25H120.625V56.2917C120.625 58.4245 121.472 60.4699 122.98 61.978C124.488 63.4861 126.534 64.3333 128.667 64.3333C130.799 64.3333 132.845 63.4861 134.353 61.978C135.861 60.4699 136.708 58.4245 136.708 56.2917V48.25H144.75C146.883 48.25 148.928 49.0973 150.436 50.6054C151.944 52.1135 152.792 54.1589 152.792 56.2917V88.4583Z" fill="white"/>
</svg>
