<svg width="48" height="48" viewBox="0 0 48 48" fill="none" xmlns="http://www.w3.org/2000/svg">
<circle cx="24" cy="24" r="24" fill="#E79A4E"/>
<path d="M30.4298 10.1412L29.7317 9H25.5075V19.2785L25.4931 29.3182C25.5003 29.3928 25.5075 29.4749 25.5075 29.5495C25.5075 32.0632 23.5357 34.1144 21.1033 34.1144C18.671 34.1144 16.6992 32.0706 16.6992 29.5495C16.6992 27.0358 18.671 24.9846 21.1033 24.9846C21.6071 24.9846 22.0964 25.0816 22.5498 25.2456V20.2332C22.082 20.1512 21.5999 20.1064 21.1033 20.1064C16.0875 20.1139 12 24.3506 12 29.5569C12 34.7633 16.0875 39 21.1105 39C26.1336 39 30.2211 34.7633 30.2211 29.5569V17.6151C32.0417 19.5022 34.3949 21.3446 37 21.9339V16.8095C34.1718 15.5117 31.3581 11.6778 30.4298 10.1412Z" fill="white"/>
</svg>
